# xmcd
#
# Track frame offsets: 
#        150
#        1267
#        19589
#        41411
#        69081
#        96862
#        118127
#        143968
#        167638
#        209096
#        238914
#        268333
#        279215
#        300965
#
# Disc length: 4209 seconds
#
# Revision: 4
# Processed by: cddbd v1.5.2PL0 Copyright (c) Steve Scherf et al.
# Submitted via: ExactAudioCopy v1.0b3
#
DISCID=bd106f0e
DTITLE=Kozmic Blue - Live At The Monterey
DYEAR=1900
DGENRE=
TTITLE0=Introduction
TTITLE1=Turtle Blues
TTITLE2=Talk Up
TTITLE3=Tell Mama
TTITLE4=Diamonds And Glass
TTITLE5=All For You
TTITLE6=Angel Wings
TTITLE7=Kozmic Blues
TTITLE8=Ball And Chain
TTITLE9=Sometimes I Feel Like A Motherless Child
TTITLE10=Follow Your Heart
TTITLE11=My Children's Laughter
TTITLE12=Live At The Monterey
TTITLE13=You Are My Baby
EXTD=
EXTT0=
EXTT1=
EXTT2=
EXTT3=
EXTT4=
EXTT5=
EXTT6=
EXTT7=
EXTT8=
EXTT9=
EXTT10=
EXTT11=
EXTT12=
EXTT13=
PLAYORDER=
